<?xml version="1.0" encoding="utf-8"?>
<!-- Generator: Adobe Illustrator 26.3.1, SVG Export Plug-In . SVG Version: 6.00 Build 0)  -->
<svg version="1.1" id="Слой_1" xmlns="http://www.w3.org/2000/svg" xmlns:xlink="http://www.w3.org/1999/xlink" x="0px" y="0px"
	 viewBox="0 0 596.28 1208.28" style="enable-background:new 0 0 596.28 1208.28;" xml:space="preserve">
<style type="text/css">
	.st0{fill:none;stroke:#000000;stroke-miterlimit:10;}
	.st1{fill:none;stroke:#000000;stroke-width:0.25;stroke-miterlimit:10;}
	.st2{fill:none;stroke:#000000;stroke-width:0.5;stroke-miterlimit:10;}
	.st3{fill:none;stroke:#000000;stroke-width:0.75;stroke-miterlimit:10;}
	.st4{fill:none;stroke:#000000;stroke-width:0.5;stroke-linecap:round;stroke-linejoin:round;stroke-miterlimit:10;}
	.st5{fill:#FFFFFF;stroke:#000000;stroke-miterlimit:10;}
	.st6{fill:#FFFFFF;}
	.st7{fill:none;stroke:#FFFFFF;stroke-miterlimit:10;}
	.st8{fill:none;stroke:#FFFFFF;stroke-linecap:round;stroke-linejoin:round;stroke-miterlimit:10;}
</style>
<rect x="0.5" y="3.41" class="st0" width="595.28" height="1207.28"/>
<path class="st7" d="M299.78,1103.75c0,0,14.45-1.18,9.26,4.07"/>
<g>
	<g>
		<g>
			<path class="st6" d="M381.21,175.05c17.47,7.44,32.09,20.72,42.54,36.44c24.49,37.76,21.42,85.9,12.74,128.19
				c-2.33,12.4-6.91,24.17-11.41,35.9c-4.49,11.73-9.13,23.39-13.73,35.07l-1.72,4.38c-0.48,1.4-1.26,2.94-1.52,4.34
				c-0.67,4.58-0.07,9.54-1.56,14.09c-0.55,1.57-1.63,2.79-2.58,4.09c-1.91,2.51-3.91,4.94-5.95,7.34
				c-10.55,16.6-21.77,33.75-33.36,49.99c-4.79,6.6-9.58,13.26-15.15,19.24c-15.59,15.47-32.72,29.28-49.89,42.94
				c-4.42,3.45-8.91,6.93-13.65,9.98c-2.49,1.96-1.89,5.66-3.31,8.36c-2.32,5.11-7.93,8.33-8.87,14.02
				c-0.07,0.62-0.06,1.38-0.35,1.97c-1.19,2.46-3.4,3.9-5.5,5.42c-3.12,2.14-6.48,3.86-9.71,5.77c-2.98,2.42-6.11,4.52-9.91,5.48
				c-1.36,0.27-2.71,0.69-4.08-0.09c-2.87-2.62,0.3-5.3,2.77-6.36c1.17-0.55,2.36-0.99,3.6-1.35l0.3,0.95
				c-6.39,2.33-12.79,4.62-19.36,6.37c-1.75,0.35-3.39,1-5.26,0.72c-0.09-0.02-0.21-0.07-0.32-0.13c0,0-0.19-0.12-0.19-0.12
				c-5.02-3.05-4.2-6.54,0.45-9.41c0,0,2.82-1.88,2.82-1.88c3.85-2.49,7.53-5,11.65-7.09c0,0,0.4,0.92,0.4,0.92
				c-8.52,3.56-17.15,7.85-26.17,9.86c-3.01,0.48-5.04-2.79-4.7-5.49c0.82-3.08,3.91-5.26,6.07-7.33c3.79-3.24,7.78-6.19,11.87-9.02
				c0,0,0.58,0.82,0.58,0.82c-3.07,2.2-6.22,4.25-9.51,6.09c-3.37,1.69-6.92,4.01-10.87,3.49c-2.39-0.99-4.09-4.49-3.75-7
				c0.7-1.99,2.49-3.33,3.88-4.82c3.29-3.16,6.75-6.11,10.18-9.07l5.14-4.45c1.79-1.67,3.88-3.23,5.28-5.16
				c0.02-0.03-0.04,0.04,0.04,0.2c-0.34-0.6-0.88-1.01-1.5-1.38c-4.74-2.31-11.25-2.45-16.43-3.2c-2.26-0.4-5.09-0.36-6.48-2.52
				c-1.67-2.22-4.6-8.4-0.7-9.72c5.7-0.86,11.45,0.48,17.11,0.26c4.69,0.28,8.73-1.93,13.31-2.35c4.56-0.42,9.04,0.65,13.52-0.43
				c8.9-1.7,16.62-7.01,22.76-13.54c9.31-9.91,16.47-21.58,23.93-32.91c3.8-5.69,7.19-11.5,10.37-17.55
				c10.89-17.29,22.44-34.15,33.96-51.03c2.61-3.72,5.25-7.41,8.09-10.99c1.43-1.76,2.9-3.35,3.64-5.52
				c1.56-4.16,1.62-8.81,1.03-13.18c-0.19-2.38-1.5-4.16-2.13-6.35c-1.35-4.46-1.45-9.12-1.22-13.67c0.55-9.13,2.54-18.06,4.8-26.86
				c2.34-8.79,4.78-17.55,7.87-26.1c1.52-4.28,3.3-8.48,4.68-12.76c3.79-12.99,1.79-27.22-2.87-39.76c0,0,0.32-0.13,0.32-0.13
				c3.65,8.34,5.46,17.5,5.43,26.63c0.43,9.3-3.46,17.87-6.63,26.36c-3.08,8.52-5.52,17.27-7.85,26.01
				c-2.25,8.76-4.23,17.65-4.77,26.66c-0.23,4.48-0.12,9.06,1.17,13.31c0.67,2.17,2.02,4.25,2.16,6.5
				c0.72,5.65,0.56,11.92-2.72,16.81c-3.62,4.39-6.95,8.93-10.2,13.6c-11.5,16.83-23.04,33.7-33.92,50.95
				c-7.48,14.03-16.45,27.21-25.7,40.15c-8.03,10.86-18.17,21.72-32.03,24.33c-4.47,1.09-9.15,0.04-13.62,0.44
				c-2.22,0.2-4.37,0.77-6.52,1.48c-7.77,2.24-15.94-0.43-23.72,0.59c-2.84,0.93,0.04,6.62,1.23,8.15c1.23,1.89,3.8,1.73,5.81,2.13
				c4.12,0.55,9.56,0.96,13.51,2.05c1.87,0.56,4.09,1.22,5.17,3.04c0.13,0.3,0.05,0.51,0.02,0.61c-1.45,2.28-3.68,3.78-5.56,5.58
				c-4.91,4.29-10.6,9.01-15.29,13.49c-1.28,1.35-2.88,2.6-3.6,4.32c-0.25,2.12,1.22,4.88,3.06,5.82c3.41,0.36,7.02-1.82,10.1-3.41
				c3.24-1.81,6.38-3.86,9.41-6.02c0,0,0.58,0.82,0.58,0.82c-4.05,2.81-8.04,5.75-11.78,8.95c-2.11,2.02-4.81,3.92-5.73,6.68
				c-0.22,2.09,1.21,4.81,3.59,4.38c8.99-2.04,17.4-6.24,25.88-9.78c0,0,0.4,0.92,0.4,0.92c-1.94,0.95-3.9,2.17-5.8,3.35
				c-1.91,1.19-3.81,2.42-5.69,3.66c-1.22,0.83-4.35,2.72-5.33,3.93c-2.22,2.37,0,4.48,2.22,5.79c0.38,0.15,1,0.04,1.55-0.02
				c3.3-0.54,6.53-1.6,9.73-2.59c4.29-1.38,8.56-2.88,12.79-4.44c0,0,0.3,0.95,0.3,0.95c-1.16,0.33-2.33,0.76-3.43,1.28
				c-1.42,0.78-3.35,1.64-3.32,3.38c0.04,0.23,0.11,0.47,0.25,0.69c0.12,0.22,0.32,0.49,0.44,0.56c0.32,0.23,0.93,0.28,1.5,0.24
				c3.01-0.32,5.87-1.73,8.4-3.37c0.83-0.58,1.42-1.05,2.17-1.74c1.31-0.93,2.74-1.64,4.1-2.44c3.24-1.84,6.52-3.67,9.33-6.11
				c1.07-1,2.2-2.07,2.4-3.49c0.04-2.29,1.09-4.48,2.39-6.3c2.15-3.11,5.04-5.58,6.65-8.96c1.39-2.76,0.84-6.68,3.61-8.73
				c12.96-8.73,24.91-18.99,36.96-28.94c9.51-8.12,19.13-16.17,27.74-25.24c11.42-13.28,21.01-28.04,30.81-42.54
				c5.55-8.36,11.01-16.78,16.38-25.25c2.03-2.39,4.04-4.82,5.93-7.32c0.88-1.23,1.93-2.41,2.43-3.83c0.5-1.41,0.71-2.95,0.86-4.49
				c0.51-3.82-0.15-8.03,1.39-11.75c5.38-13.88,10.99-27.74,16.29-41.65c4.5-11.71,9.04-23.38,11.37-35.76
				c7.49-36.36,10.62-75.87-3.77-110.93c-7.32-17.25-19.34-32.51-34.63-43.38c-5.08-3.6-10.5-6.85-16.24-9.18
				C380.86,175.99,381.21,175.05,381.21,175.05L381.21,175.05z"/>
		</g>
		<g>
			<path class="st6" d="M219.36,572.62c-0.57,1.26-0.53,2.96-0.1,4.26c0.51,1.48,1.97,2,3.44,2.09c0,0,0.02,0.25,0.02,0.25
				c-2.92,0.6-4.89-1.69-4.48-4.52c0.16-0.8,0.27-1.64,0.97-2.27L219.36,572.62L219.36,572.62z"/>
		</g>
		<g>
			<path class="st6" d="M225.41,585.92c-1.18,1.52-1.16,3.76,0.12,5.16c1.34,1.47,3.52,1.49,5.4,1.25c0,0,0.05,0.19,0.05,0.19
				c-3.1,1.38-7.43-0.01-7.24-3.94c0.06-1.12,0.63-2.21,1.53-2.8L225.41,585.92L225.41,585.92z"/>
		</g>
		<g>
			<path class="st6" d="M387.01,314.91c19.28,4.36,34.82-7.21,43.37-23.77c1.77-3.43,3.68-7.75,5.01-11.38c0,0,0.33,0.11,0.33,0.11
				c-4.84,15.64-15.21,31.91-32.19,35.73c-5.47,1.22-11.24,1.23-16.62-0.36C386.91,315.25,387.01,314.91,387.01,314.91
				L387.01,314.91z"/>
		</g>
		<g>
			<path class="st6" d="M384.18,421.83c-7.56,4.93-14.02,12.18-20.48,18.46c0,0-0.33-0.3-0.33-0.3c4.41-5.34,9.35-10.39,14.79-14.69
				c1.84-1.43,3.7-2.82,5.84-3.85C384,421.44,384.18,421.83,384.18,421.83L384.18,421.83z"/>
		</g>
		<g>
			<path class="st6" d="M388.91,450.34c-5.83,4.2-11.01,9.49-15.83,14.8c-12.13,13.47-22.97,28.06-33.57,42.75
				c-2.13,2.94-4.24,5.89-6.32,8.86c0,0-0.3-0.21-0.3-0.21c7.97-12.14,16.41-23.98,25.43-35.38c4.54-5.67,9.19-11.27,14.16-16.58
				c4.97-5.29,10.19-10.44,16.24-14.53C388.72,450.05,388.91,450.34,388.91,450.34L388.91,450.34z"/>
		</g>
		<g>
			<path class="st6" d="M270.99,561.76c1.9,3.4,3.83,7.4,7.72,8.8c0,0-0.09,0.44-0.09,0.44c-4.31-0.77-6.99-5.16-7.98-9.13
				C270.64,561.88,270.99,561.76,270.99,561.76L270.99,561.76z"/>
		</g>
		<g>
			<path class="st6" d="M406.3,374.03c3.86-1.9,7.65-3.97,11.18-6.39c3.41-2.44,6.98-5.13,8.72-9.05c0,0,0.33,0.11,0.33,0.11
				c-2.07,6.4-8.58,10.01-14.14,13.04c-1.94,0.98-3.92,1.88-5.96,2.62L406.3,374.03L406.3,374.03z"/>
		</g>
		<g>
			<path class="st6" d="M234.32,544.35c-2.68,4.77,0.28,6.48,4.81,6.9c0,0,0.01,0.25,0.01,0.25c-0.5,0.07-1.01,0.09-1.52,0.14
				c-2.79,0.16-5.93-1.61-5.09-4.8c0.26-1.04,0.78-2.01,1.64-2.66C234.16,544.17,234.32,544.35,234.32,544.35L234.32,544.35z"/>
		</g>
		<g>
			<path class="st6" d="M210.5,543.48c1.67,2.48,2.77,6.59,0.15,8.81c0,0-0.18-0.18-0.18-0.18c1.8-2.58,0.67-5.77-0.2-8.52
				C210.28,543.59,210.5,543.48,210.5,543.48L210.5,543.48z"/>
		</g>
		<g>
			<path class="st6" d="M234.26,597.44c-1.9,0.82-2.54,2.32-0.48,3.4c1.61,0.84,3.55,1.06,5.35,1.32c0,0,0,0.2,0,0.2
				c-0.48,0.05-0.96,0.07-1.44,0.1c-2.12,0.02-6.4-0.59-5.97-3.52c0.34-1.13,1.46-1.59,2.49-1.7
				C234.21,597.25,234.26,597.44,234.26,597.44L234.26,597.44z"/>
		</g>
	</g>
	<g>
		<g>
			<path class="st6" d="M279.52,267.02c-6.43,20.01-10.52,47.73,9.14,61.68c9.98,6.42,22.2,9.87,34.07,9.15
				c13.83-0.85,26.16-9.09,34.45-19.9c4.24-5.4,7.72-11.38,10.58-17.63l0.37,0.16c-2.78,6.32-6.15,12.41-10.37,17.92
				c-13.47,17.85-34.14,25.07-55.51,17.68c-4.94-1.63-9.8-3.69-14.09-6.67c-18.97-13.54-16.24-40.36-9.67-59.91
				c0,0,0.8-2.36,0.8-2.36S279.52,267.02,279.52,267.02L279.52,267.02z"/>
		</g>
		<g>
			<path class="st6" d="M307.36,331.95c7.17-6.45,16.72-3.16,22.03,3.9c0,0-0.26,0.23-0.26,0.23c-5.99-6.09-13.93-9.34-21.53-3.88
				C307.6,332.21,307.36,331.95,307.36,331.95L307.36,331.95z"/>
		</g>
		<path class="st7" d="M315.59,335.97c-0.07,2.78,5.81-0.68,5.04-1.78C319.87,333.1,315.63,334.63,315.59,335.97z"/>
	</g>
	<g>
		<g>
			<path class="st6" d="M202.78,239.57c-11.01,29.86-8.78,64.06,23.59,78.5c19.35,8.99,35.73-2.35,44.04-20.14
				c0,0,0.23,0.09,0.23,0.09c-10.6,23.53-30.69,31.34-52.78,16.49c-13.45-8.66-20.97-23.15-21.63-38.99
				c-0.35-6.15,0.14-12.33,1.25-18.38c1.13-6.04,2.77-11.99,5.08-17.68C202.55,239.48,202.78,239.57,202.78,239.57L202.78,239.57z"
				/>
		</g>
		<g>
			<path class="st6" d="M215.36,306.61c4.93-1.63,11.49,0.33,12.36,6.05c0,0-0.34,0.1-0.34,0.1c-1.87-5.06-7.02-6.42-11.94-5.8
				C215.45,306.95,215.36,306.61,215.36,306.61L215.36,306.61z"/>
		</g>
	</g>
	<g>
		<g>
			<path class="st6" d="M225.41,438c1.92,14.28,2.99,28.64,5.88,42.77c0.33,1.38,0.74,3.28,1.19,4.62c0.26,1.04,0.73,1.97,1.15,2.95
				l-0.28,0.16c-0.46-0.97-1-1.93-1.3-2.96c-2.42-7.09-3.41-14.61-4.5-21.98c-0.88-6.12-1.54-12.92-2.08-19.11
				c-0.18-2.12-0.3-4.28-0.49-6.36L225.41,438L225.41,438z"/>
		</g>
		<g>
			<path class="st6" d="M264.6,438.07c-0.67-2.64-3.66-2.58-5.79-1.84c-0.8,0.22-1.58,0.55-2.39,0.82l-0.21-0.4
				c2.66-1.97,8.46-3.34,8.97,1.36C265.18,438.01,264.6,438.07,264.6,438.07L264.6,438.07z"/>
		</g>
		<g>
			<path class="st6" d="M257.86,439.82c3.07,2.47,7.16,2.58,10.5,0.65c0,0,0.24,0.34,0.24,0.34c-3.1,2.9-8.35,2.63-11.05-0.69
				C257.55,440.12,257.86,439.82,257.86,439.82L257.86,439.82z"/>
		</g>
		<g>
			<path class="st6" d="M297.38,452.02c-1.92,7.56-4.25,15.01-6.92,22.34c-2.8,7.27-5.5,14.74-10.27,21.01c0,0-0.37-0.29-0.37-0.29
				c0.53-0.81,1.09-1.59,1.58-2.42c5.17-9.33,8.51-19.6,11.96-29.66c1.24-3.69,2.45-7.39,3.63-11.09
				C296.99,451.91,297.38,452.02,297.38,452.02L297.38,452.02z"/>
		</g>
	</g>
	<g>
		<path class="st6" d="M351.33,237.48c4.55-8.42,10.2-16.6,17.89-22.43c0,0,0.22,0.27,0.22,0.27c-5.27,4.86-9.69,10.53-13.8,16.38
			c-1.37,1.96-2.71,3.94-4.01,5.95C351.63,237.65,351.33,237.48,351.33,237.48L351.33,237.48z"/>
	</g>
	<g>
		<path class="st6" d="M299.73,161.15c0.28,9.81,0.3,19.62-0.03,29.43c-0.49,9.77-0.52,19.8-3.45,29.22c0,0-0.33-0.11-0.33-0.11
			c1.22-4.72,1.56-9.62,2.01-14.48c0.73-9.76,1.03-19.56,1.24-29.35c0.08-4.9,0.18-9.8,0.2-14.7
			C299.38,161.16,299.73,161.15,299.73,161.15L299.73,161.15z"/>
	</g>
	<g>
		<path class="st6" d="M302.83,217.77c5.77-8.42,16.83-10.85,26.47-10.08c0,0-0.09,1-0.09,1c-9.39-0.97-20.27,1.18-26.08,9.26
			C303.13,217.95,302.83,217.77,302.83,217.77L302.83,217.77z"/>
	</g>
	<path class="st7" d="M397.03,88.41c2,22.22-1.44,46-3,54.67c-1.56,8.67-27.22,63.78-33.37,70.22c-6.15,6.44-16.52,2.67-20.74,1.63
		c-4.22-1.04-32.52-22.82-35.63-27.86c-3.11-5.04,0.52-48.88,0.52-48.88l10,2.67c0,0-4-31.11,2.89-41.89"/>
	<g>
		<path class="st6" d="M239.3,199.32c4.84,3.89,8.98,8.89,11.37,14.65c0,0-0.32,0.15-0.32,0.15c-3.13-5.31-7.12-10.02-11.29-14.54
			C239.07,199.58,239.3,199.32,239.3,199.32L239.3,199.32z"/>
	</g>
	<g>
		<path class="st6" d="M385.59,464.06c-1.43,9.65-2.78,19.43-5.37,28.85c-0.71,4.36-0.44,8.77-0.29,13.19
			c0.98,23.03,4.78,46.23,2.33,69.3c-4.37,26.32-4.42,53.12-6.83,79.66c-0.81,8.85-1.45,17.81-3.5,26.5c-1,3.48-2.49,6.65-3.48,10.1
			c-2.58,8.5-4.72,17.14-6.74,25.77c-3.18,13.84-6.11,27.78-8.1,41.84c-0.48,3.51-0.89,7.05-0.96,10.55
			c0.09,3.54,0.53,7.11,0.43,10.66c-0.51,17.09-0.17,25.68,8.06,40.98C381,858.8,376.64,885.7,371.38,925.7
			c-5.49,42.33-15.27,83.99-20.16,126.4c-0.69,7.04-1.68,14.1-0.84,21.17c0.75,7.05,1.98,14.09,2.18,21.26
			c0,3.62,0.09,7.42-1.88,10.66c-2.39,3.62-6.94,1.47-10.42,1.35c-3.52-0.36-7.06-0.52-10.6-0.56c-7.05-0.08-14.18,0.41-20.88,2.76
			c-1.65,0.55-3.35,1.33-5.28,1.38c-2.41-0.03-4.5-0.69-6.7-1.44c-1.28-0.64-2.31-1.54-3.33-2.52c-3.77-3.63-0.03-5.8,3.25-7.32
			c0,0,0.57-0.29,0.57-0.29c0.17-0.08,0.39-0.24,0.39-0.25c-0.2-0.16,0.14,0.71,0.19,0.56c-1.33-0.01-3.39,0.43-4.74,0.62
			c-3.5,0.6-6.99,1.28-10.55,1.75c-1.78,0.26-3.76,0.39-5.49-0.23c-1.9-0.39-8.91-4.19-6.21-6.55c3.13-1.5,6.73-0.42,9.94-1.16
			c0.07-0.01,0.06-0.07,0,0.06c-0.04,0.15-0.01,0.19-0.01,0.18c-1.73-0.72-4.16-0.39-6.13-0.5c-5.32-0.08-10.97-0.04-15.92-2.36
			c-0.96-0.49-4.04-2.12-2.54-3.43c0.59-0.37,1.04-0.36,1.52-0.44c1.86-0.15,3.63-0.01,5.41,0.07c1.6,0.07,3.51,0.28,5.04-0.09
			c0.05-0.02-0.01-0.02-0.04,0.11c0,0.14-0.02,0.02-0.02,0.03c-1.14-0.67-2.77-0.31-4.09-0.42c-4.55,0.02-10.54-0.09-12.93-4.75
			c-2.71-5.57,7.08-4.41,10.09-4.59c0.43-0.01,0.89-0.02,1.22-0.1c0.07,0,0.15-0.09,0.01,0.04c-0.2,0.32,0.07,0.5,0.02,0.46
			c-5.32-0.43-16.95,1.99-15.42-6.88c3.09-8.98,17.92-3.29,25.01-5.36c3.47-0.71,6.25-2.92,8.78-5.32
			c6.53-5.92,12.52-12.63,16.89-20.3c7.06-12.21,11.29-26.28,10.39-40.47c-1.09-14.13-3.65-28.18-6.73-42.01
			c-3.05-13.88-7.99-27.46-8.85-41.76c-0.53-7.09-0.14-14.31,0.36-21.38c0.94-14.16,2.4-28.37,1.58-42.55
			c-0.26-5.31-1.23-10.54-3.02-15.53c-10.83-35.71-19.97-72.25-22.79-109.57c-1.1-12.84-0.53-29.81-0.38-42.7
			c0.35,0.03,0.35-86.06,1.36-85.34c0,0,0.13,10.67,0.13,10.67c0.17,24.87-0.02,49.84-0.45,74.69c-0.21,12.96-0.74,29.97,0.34,42.61
			c2.81,37.23,11.93,73.69,22.74,109.33c1.82,5.06,2.81,10.43,3.07,15.77c0.83,14.26-0.64,28.48-1.58,42.68
			c-0.5,7.05-0.89,14.19-0.36,21.25c0.86,14.22,5.79,27.75,8.83,41.6c2.42,10.41,4.21,20.95,5.65,31.54
			c1.6,10.57,1.86,21.57-1.13,31.94c-4.23,15.63-13.21,29.62-25.37,40.27c-7.91,8.25-15.25,5.66-25.29,5.72
			c-3.21,0.12-7.26,1.02-8.21,4.48c-0.39,1.51,0.01,3.32,1.29,4.29c2.88,1.77,6.77,1.33,10.1,1.28c0.74,0.1,4.63-0.61,3.84,1.2
			c-0.29,0.3-0.43,0.27-0.58,0.33c-2.28,0.32-4.51,0-6.74,0.21c-1.58,0.23-5.02,0.24-4.15,2.49c0.44,1.13,1.21,2.19,2.24,2.87
			c2.89,1.9,6.64,1.87,10.04,1.89c1.3,0.14,5.09-0.49,5.09,1.56c-0.07,0.36-0.33,0.52-0.47,0.59c-1.08,0.47-1.84,0.25-2.88,0.31
			c-2.91,0.08-6.34-0.67-8.97,0.06c0.01-0.04-0.01-0.05,0.02,0c0.03,0.08,0.16,0.24,0.3,0.36c0.58,0.54,1.35,0.99,2.09,1.38
			c4.8,2.23,10.25,2.18,15.48,2.26c1.27,0.2,7.59-0.61,7.06,1.71c-0.16,0.32-0.37,0.4-0.51,0.47c-0.3,0.13-0.53,0.16-0.78,0.2
			c-1.49,0.42-9.75-0.35-9.15,1.45c1.17,2.09,3.82,3.43,6.07,4.18c1.68,0.58,3.34,0.43,5.07,0.2c4.34-0.55,8.79-1.51,13.15-2.17
			c0.85-0.13,1.64-0.27,2.52-0.18c0.33-0.16,0.73,1.03,0.34,1.03c-0.29,0.32-0.48,0.38-0.69,0.51c0,0-0.61,0.31-0.61,0.31
			l-1.19,0.59c-2.34,1.19-4.52,2.63-1.79,5.14c1.21,1.17,2.53,2.32,4.23,2.7c1.68,0.51,3.39,0.97,5.06,0.96
			c1.66-0.04,3.28-0.76,4.98-1.33c6.8-2.38,14.07-2.89,21.21-2.81c3.57,0.03,7.14,0.2,10.7,0.56c3.11-0.02,7.38,2.23,9.5-0.92
			c1.77-2.93,1.72-6.7,1.7-10.07c-0.19-7.06-1.41-14.09-2.17-21.18c-0.85-7.11,0.14-14.3,0.84-21.38
			c4.89-42.42,14.67-84.09,20.16-126.42c5.21-39.8,9.62-66.51-10.16-103.65c-8.32-15.45-8.68-24.32-8.16-41.43
			c0.1-3.57-0.34-7.09-0.43-10.65c0.07-3.61,0.49-7.15,0.97-10.69c2-14.11,4.93-28.05,8.12-41.93c2.01-8.63,4.18-17.34,6.75-25.84
			c0.97-3.39,2.51-6.71,3.47-10.06c3.36-15.6,3.76-31.72,5-47.61c1.27-17.73,1.9-35.56,4.43-53.19c0.64-3.53,1.2-6.96,1.4-10.52
			c1.56-24.9-3.4-49.67-2.89-74.57c0,0,0.13-1.35,0.13-1.35s0.21-1.35,0.21-1.35c0.7-2.67,1.37-5.09,1.88-7.78
			c1.39-6.96,2.49-13.98,3.48-21.02C384.6,463.92,385.59,464.06,385.59,464.06L385.59,464.06z"/>
	</g>
	<path class="st7" d="M260.37,1072.52c0,0-6,2-1.56,4.33"/>
	<path class="st7" d="M261.03,1083.08c0,0-6-1.56-0.67,3.67"/>
	<path class="st7" d="M269.85,1092.34c0,0-1.26,2.52,3.63,2.22"/>
	<path class="st7" d="M282.81,1098.78c0,0,6.81-3.04,7.33,1.85"/>
	<path class="st7" d="M288.48,764.56c0,0,10.11-13.04,27.89-2.37"/>
	<path class="st7" d="M286.22,787.97c7.84,1.88,16.49,11.99,16.69,39.41"/>
	<path class="st7" d="M295.7,705.33c0,0,5.72,20.12,24.93,29.6c19.21,9.48,23.73,1.26,23.73,1.26"/>
	<g>
		<path class="st7" d="M207.16,552.83c0.44,0.97,0.9,1.98,1.37,3.02c1.68,3.7,0.44,16.26,2.12,19.97"/>
		<path class="st7" d="M288.58,158.18c-49.33-0.11-96.29,9.64-112.67,40.67c-2.98,5.65-8.45,27.41-8.91,36.66
			c-0.47,9.28,0.26,27.19-1.64,33c-2.22,6.78-2.44,11.44-5,25.67c-2.24,12.47-0.85,34.78-0.56,53.11
			c0.28,17.62,3.67,46.33,4.33,50.78c0.67,4.44,4.11,49.11,8.22,60.33c5.58,15.23,15.68,54.62,20.78,63.22
			c1.71,2.88,2.61,5.66,9.76,21.71"/>
		<path class="st7" d="M254.61,537.88c-5.12-2.18-13.04,3.59-22.07-10.18c-9.04-13.78-9.54-52.74-11.11-70.52
			c-0.96-10.84-4.74-43.56-4.74-43.56c-0.67-32.96-5.05-70.22-3.5-103.33"/>
		<g>
			<path class="st6" d="M197.91,250.2c-11.08,24.33-15.21,56.71-1.39,80.72c2.28,4.05,5.08,7.78,7.75,11.63
				c2.63,3.82,5.14,8.27,4.59,13.09c0,0-0.35-0.03-0.35-0.03c0.07-1.15,0.01-2.31-0.19-3.44c-0.67-3.44-2.63-6.39-4.62-9.22
				c-2.7-3.79-5.58-7.51-7.94-11.58c-9.7-16.34-10.51-36.45-7.01-54.72c1.88-9.18,4.74-18.18,8.94-26.56
				C197.69,250.09,197.91,250.2,197.91,250.2L197.91,250.2z"/>
		</g>
	</g>
	<g>
		<path class="st6" d="M377.39,510.84c-4.54,19.98-10.23,50.44-3.41,69.94c0,0-0.4,0.17-0.4,0.17c-6.37-15.59-3.3-36.59-0.52-52.86
			c1.08-5.83,2.38-11.62,3.92-17.35C376.98,510.73,377.39,510.84,377.39,510.84L377.39,510.84z"/>
	</g>
	<g>
		<path class="st6" d="M351.65,194.42c0.24,4.17,6.43,3.51,9.44,3.76c0,0,3.93,0.04,3.93,0.04l0.03,0.35
			c-3.68,0.56-14.36,1.79-13.74-4.17C351.3,194.4,351.65,194.42,351.65,194.42L351.65,194.42z"/>
	</g>
	<path class="st7" d="M349.01,185.24c-0.12,0.57,7.22,6.01,15.11,5.11c4.65-0.53,10.22-7.1,8.47-7.83
		C363.35,178.64,349.59,182.49,349.01,185.24z"/>
	<path class="st7" d="M368.35,183.47c1.92,0.1,2.59,0.46,1.93,0.87c-4.05,2.5-16.88,2.68-17.06,1.13
		C353.06,184.02,363.58,183.22,368.35,183.47z"/>
	<path class="st7" d="M370.1,129.68c0.26-5.28-35.29-1.79-34.03-0.08C336.07,129.6,370.08,130.08,370.1,129.68z"/>
	<path class="st7" d="M363.11,136.04c6.5,3.77-22.81,1.11-22.81,1.11S347.63,127.08,363.11,136.04z"/>
	<path class="st7" d="M378.86,129.6c0,0-1.12-3.74,12.39-5.03C404.44,123.3,378.86,129.6,378.86,129.6z"/>
	<path class="st7" d="M194.18,523.76c0,0-12.7,44.66-12.7,68.88s3.56,89.11,15.78,109.56c12.22,20.44,21.56,39.78,21.56,39.78
		s-1.33,13.56,3.78,28.89c5.11,15.33,11.11,34,15.11,40.89c4,6.89,10.44,15.56,11.78,23.11c1.33,7.56,31.25,83.91,47.29,102.18"/>
	<path class="st7" d="M254.59,666.41c0,0,6.22,58.89-7.67,70.44"/>
	<path class="st7" d="M253.48,761.28c0,0,18.07,28.47-9.48,29.36"/>
	<g>
		<path class="st6" d="M304.32,138.26c-1.55-8.37-5.13-21.59-14.49-23.89c-3.14-0.63-6.51,0.3-9.25,1.86
			c-7.86,4.48-5.52,15.12-1.99,21.8c2.36,4.23,5.75,8.2,10.11,10.38c0,0,0.26,0.14,0.26,0.14l0.02,0.27
			c1.25,20.51,1.94,41.23-0.82,61.64c-1.2,6.64-2.12,14.09-6.95,19.19c0,0-0.24-0.26-0.24-0.26c2.32-2.47,3.46-5.79,4.4-9.03
			c2.56-9.92,3.03-20.25,3.44-30.46c0.39-13.67-0.03-27.37-0.83-41.02c0,0,0.28,0.41,0.28,0.41c-6.11-3.15-10.38-9.08-12.56-15.48
			c-1.59-4.73-2.38-10.5,0.56-14.93c3.94-5.61,12.92-7.76,18.47-3.31c4.08,3.16,6.38,8.03,8.09,12.75c1.11,3.19,1.94,6.44,2.49,9.78
			C305.31,138.12,304.32,138.26,304.32,138.26L304.32,138.26z"/>
	</g>
	<path class="st7" d="M294.52,128.04c0,0-13.19-14.81-10.89-4.37s8.74,19.11,11.56,16.81s2.74-4.67,2.74-4.67"/>
	<path class="st7" d="M288.48,148.86c0,0,12.63,5.63,14.48-2.52"/>
	<g>
		<path class="st6" d="M206.65,380.79c-1.5,9.76-1.37,20.3,2.99,29.34c0.54,1.33,1.4,2.47,2.09,3.73l-0.28,0.21
			c-5.44-6.94-7.02-16.15-6.48-24.79c0.2-2.89,0.59-5.77,1.34-8.58L206.65,380.79L206.65,380.79z"/>
	</g>
	<g>
		<path class="st6" d="M223.26,544.95c0.15,2.35-0.36,4.64,0.4,6.89c0,0-0.17,0.11-0.17,0.11c-0.45-0.45-0.72-1.04-0.89-1.64
			c-0.46-1.79-0.31-3.72,0.47-5.4C223.06,544.91,223.26,544.95,223.26,544.95L223.26,544.95z"/>
	</g>
	<g>
		<path class="st6" d="M233.6,564.42c-1.69,3.89-1.92,6.04,2.84,6.85c0,0,0,0.2,0,0.2c-3.36,0.57-6.01-1.45-4.49-4.94
			c0.35-0.84,0.87-1.59,1.48-2.22L233.6,564.42L233.6,564.42z"/>
	</g>
	<line class="st7" x1="213.4" y1="587.73" x2="214.8" y2="589.97"/>
	<line class="st7" x1="221.98" y1="597.87" x2="225.4" y2="599.81"/>
	<g>
		<path class="st6" d="M246.39,603.36c1.43,0.37,3.29,1.38,3.25,3.07c0,0-0.2,0.01-0.2,0.01c-0.4-1.46-1.91-2.16-3.11-2.89
			C246.32,603.55,246.39,603.36,246.39,603.36L246.39,603.36z"/>
	</g>
	<path class="st7" d="M363.52,157.46c-4.33,6.56-7.49,7.81-6.94,10.39c0.42,1.97,0.72,2.41,2.28,3.17
		c0.71,0.35,23.28,6.15,20.33-1.67c-6.27-16.65-6.27-23.86-6.27-23.86"/>
	<path class="st7" d="M362.44,169.9c0,0,3.75-0.88,5.55-1.08c5.7-0.63,5.26,0.84,0.66,2.04"/>
	<circle class="st7" cx="241.54" cy="532.12" r="0.48"/>
	<circle class="st7" cx="243.79" cy="534.6" r="0.48"/>
	<circle class="st7" cx="246.89" cy="535.56" r="0.48"/>
	<circle class="st7" cx="250.26" cy="535.35" r="0.48"/>
	<circle class="st7" cx="253.81" cy="535.35" r="0.48"/>
	<circle class="st7" cx="245.62" cy="532.12" r="0.48"/>
	<circle class="st7" cx="238.65" cy="531.64" r="0.48"/>
	<circle class="st7" cx="249.3" cy="532.47" r="0.48"/>
	<circle class="st7" cx="252.72" cy="532.8" r="0.48"/>
	<circle class="st7" cx="256.95" cy="535.83" r="0.48"/>
	<circle class="st7" cx="256.2" cy="532.8" r="0.48"/>
	<circle class="st7" cx="258.12" cy="534.13" r="0.48"/>
	<circle class="st7" cx="260.31" cy="531.84" r="0.48"/>
	<circle class="st7" cx="240.79" cy="534.6" r="0.48"/>
	<circle class="st7" cx="260.79" cy="534.03" r="0.48"/>
	<circle class="st7" cx="263.07" cy="532.32" r="0.48"/>
	<circle class="st7" cx="262.74" cy="529.48" r="0.48"/>
	<circle class="st7" cx="265.06" cy="530.74" r="0.48"/>
	<circle class="st7" cx="259.84" cy="529.48" r="0.48"/>
	<circle class="st7" cx="257.64" cy="530.89" r="0.48"/>
	<circle class="st7" cx="254.46" cy="530.74" r="0.48"/>
	<circle class="st7" cx="251.06" cy="530.48" r="0.48"/>
	<circle class="st7" cx="248.13" cy="530.26" r="0.48"/>
	<circle class="st7" cx="245.14" cy="530" r="0.48"/>
	<circle class="st7" cx="243.58" cy="531.48" r="0.48"/>
	<circle class="st7" cx="242.02" cy="529.78" r="0.48"/>
	<circle class="st7" cx="239.6" cy="529.48" r="0.48"/>
	<circle class="st7" cx="236.89" cy="530" r="0.48"/>
</g>
</svg>
