<?xml version="1.0" encoding="utf-8"?>
<!-- Generator: Adobe Illustrator 26.3.1, SVG Export Plug-In . SVG Version: 6.00 Build 0)  -->
<svg version="1.1" id="Слой_1" xmlns="http://www.w3.org/2000/svg" xmlns:xlink="http://www.w3.org/1999/xlink" x="0px" y="0px"
	 viewBox="0 0 596.28 1208.28" style="enable-background:new 0 0 596.28 1208.28;" xml:space="preserve">
<style type="text/css">
	.st0{fill:none;}
	.st1{fill:none;stroke:#000000;stroke-width:0.25;stroke-miterlimit:10;}
	.st2{fill:none;stroke:#000000;stroke-miterlimit:10;}
	.st3{fill:none;stroke:#000000;stroke-width:0.5;stroke-miterlimit:10;}
	.st4{fill:none;stroke:#000000;stroke-width:0.75;stroke-miterlimit:10;}
	.st5{fill:none;stroke:#000000;stroke-width:0.5;stroke-linecap:round;stroke-linejoin:round;stroke-miterlimit:10;}
	.st6{fill:#FFFFFF;stroke:#000000;stroke-miterlimit:10;}
	.st7{fill:#FFFFFF;}
	.st8{fill:none;stroke:#FFFFFF;stroke-miterlimit:10;}
	.st9{fill:none;stroke:#FFFFFF;stroke-linecap:round;stroke-linejoin:round;stroke-miterlimit:10;}
</style>
<rect x="0.5" y="0.5" class="st0" width="595.28" height="1207.28"/>
<g>
	<g>
		<g>
			<path class="st7" d="M280.88,199.77c-2.23-0.86-4.7,0.96-6.36,2.37c-1.59,1.93-1.44,5.09-1.34,7.52c0,0-0.52,0-0.52,0
				c-3.49-0.56-5.15,2.9-5.82,5.77c-0.38,1.5-0.39,3.12-0.05,4.64c1.02,4.75,2.62,9.38,4.19,13.99c1.08,3.08,2.16,6.15,3.43,9.12
				c1.18,3.09,3.26,5.66,4.37,8.78c0.95,3.14,2.48,5.91,4.2,8.68c3.47,5.5,7.03,10.95,11.11,16.04c1.15,1.35,0.95,3.41,1,5.06
				c-0.27,11.46-1.87,22.87-4.4,34.05c-0.73,3.2-1.63,6.35-2.66,9.47c-1.07,3.08-2.4,6.01-2.83,9.25c-0.61,3.7-0.02,7.43,0.9,11.03
				c0.01,0.07,0.02,0.12,0.02,0.28c-0.03,0.11,0.03,0.09-0.13,0.34c-0.36,0.3-0.32,0.15-0.43,0.2c-0.46-0.02-0.69-0.37-0.94-0.58
				c-3.4-3.53-1.71-7.56-1.01-11.59c0.4-4.29-0.84-8.65-2.28-12.67c-1.8-4.66-5.77-11.05-8.26-15.49c-1.44-2.57-2.91-5.09-4.55-7.52
				c-1.62-2.44-3.43-4.74-5.08-7.22c-3.25-4.97-5.38-10.59-6.83-16.32c0,0,0.25-0.07,0.25-0.07c1.97,5.49,4.15,10.99,7.42,15.83
				c3.39,4.75,6.92,9.6,9.69,14.78c4.94,8.7,11.49,18.33,10.7,28.8c-0.16,1.54-0.65,2.99-0.88,4.38c-0.56,2.34,0.08,5.06,1.94,6.63
				c0.06,0.03-0.09-0.06-0.21-0.04c-0.08,0.05-0.01-0.08-0.36,0.19c-0.15,0.24-0.09,0.18-0.11,0.27c-1.48-5.2-1.67-11.03,0.27-16.24
				c4.16-10.63,6.22-21.9,7.58-33.2c0.6-5.61,1.26-11.31,0.97-16.95c-0.06-0.78-0.16-1.35-0.69-1.98
				c-4.09-5.09-7.69-10.6-11.19-16.13c-1.28-2.11-2.57-4.25-3.49-6.57c-0.79-2.35-1.56-4.52-2.92-6.61
				c-2.5-4.28-3.99-9.04-5.64-13.66c-1.67-5.06-3.5-10.11-4.38-15.39c-0.38-4.22,1.83-11.09,7.08-10.36c0,0-0.49,0.55-0.49,0.53
				c-0.02-2.68-0.19-5.52,1.68-7.76c1.03-0.92,2.08-1.65,3.31-2.26c1.2-0.57,2.74-0.92,4.13-0.33
				C281.26,198.85,280.88,199.77,280.88,199.77L280.88,199.77z"/>
		</g>
		<g>
			<path class="st7" d="M211.09,308.37c6.44,33.31,15.24,46.3,39.31,69.51c2.56,2.46,6.01,5.66,8.38,8.25
				c2.87,2.92,5.76,6.51,8.58,9.65c3.31,3.7,6.66,7.36,10.48,10.5c0.28,0.19,0.6,0.36,0.92,0.49c4.49,1.52,9.38,2.04,14.11,2.24
				c2.65,0.04,5.39,0.46,7.92-0.23c1.86,0.01,4.1-0.45,5.1-2.14c2.46-5.59,4.71-11.43,6.88-17.15c3.97-10.61,7.6-21.36,10.67-32.27
				c1.2-4.98,1.76-10.1,2.34-15.2c0.85-8.19,1.48-16.42,1.69-24.65l1,0.02c-0.21,8.28-0.84,16.51-1.69,24.74
				c-0.58,5.14-1.15,10.31-2.37,15.36c-3.07,10.93-6.72,21.72-10.7,32.35c-1.97,5.29-4.11,10.63-6.29,15.83
				c-0.8,2.96-3.85,4.21-6.38,4.07c-2.17,0.58-4.45,0.48-6.58,0.34c-2.17-0.06-4.33-0.1-6.48-0.36c-3.51-0.49-7.18-0.77-10.44-2.32
				c-0.7-0.45-1.33-1.04-1.97-1.58c-6.52-5.68-11.73-12.73-17.62-18.94c-2.58-2.83-5.54-5.48-8.33-8.22
				c-11.11-10.91-22.39-22.32-29.3-36.48c-4.89-10.68-8.24-22.12-9.53-33.8C210.8,308.41,211.09,308.37,211.09,308.37L211.09,308.37
				z"/>
		</g>
		<path class="st8" d="M270.43,233.96c-0.64,2.42-0.33,3.37-0.15,4.61c0.46,3.19,1.89,4.47,3.69,9.53c0.9,2.52,0.73,2.72,1.26,4.12
			c1.02,2.69,1.67,5.21,7.25,8.65"/>
		<path class="st8" d="M272.68,209.44c-0.21,1.12-0.34,2.79,0.35,5.15c0.58,1.98,1.92,5.24,2.75,6.08"/>
		<g>
			<path class="st7" d="M266.8,218.61c0.48-2.35,3.14-4.73,5.59-3.67C270,215.42,268.59,217.04,266.8,218.61L266.8,218.61z"/>
		</g>
		<g>
			<path class="st7" d="M274.02,212.95c0.42-3.59,4.44-4.31,7.26-2.96c-1.47,0.21-2.91,0.15-4.15,0.51
				C275.78,210.85,274.9,211.86,274.02,212.95L274.02,212.95z"/>
		</g>
		<path class="st8" d="M281.94,209.43c0.19,0.41,0.61,3.8,2.17,6.96c1.56,3.17,7.5,9.47,9.56,13.96"/>
	</g>
	<g>
		<g>
			<path class="st7" d="M304.84,199.4c0.09-0.02,0.15-0.12,0.18-0.19c0.02,0,0-0.06,0.01-0.02c2.03,5.32,5.43,10.1,8.29,15.02
				c0,0-0.26,0.22-0.26,0.22c-3.1-3.25-5.27-7.23-7.43-11.14c-0.63-1.31-1.41-2.6-1.61-4.07c-0.01-0.24,0.07-0.53,0.36-0.71
				C304.39,198.51,304.84,199.4,304.84,199.4L304.84,199.4z"/>
		</g>
		<g>
			<path class="st7" d="M320.46,205.2c2.67,3.68,5.39,7.38,7.18,11.61c0.88,2.12,1.16,4.37,2.06,6.48c0.82,2.09,1.88,4.08,3.16,5.93
				c0,0-0.16,0.11-0.16,0.11c-1.39-1.79-2.58-3.75-3.53-5.83c-1-2.02-1.43-4.31-2.39-6.32c-0.98-1.99-2.05-3.96-3.28-5.84
				c-1.21-1.89-2.51-3.73-3.85-5.54L320.46,205.2L320.46,205.2z"/>
		</g>
		<g>
			<path class="st7" d="M278.45,229.84c-1.53-3.2,0.57-6.59,4.1-6.49c0,0,0.02,0.42,0.02,0.42c-2.85,0.25-4.47,3.33-3.68,5.9
				C278.89,229.67,278.45,229.84,278.45,229.84L278.45,229.84z"/>
		</g>
		<g>
			<path class="st7" d="M292.06,206.5c-3.38-0.93-5.65,1.65-6.17,4.78C284.74,207.73,288.79,203.82,292.06,206.5L292.06,206.5z"/>
		</g>
		<g>
			<path class="st7" d="M318.16,222.78c-1.18-2.07-2.81-3.43-4.9-4.53c0,0,0.1-0.37,0.1-0.37c1.25,0.05,2.46,0.66,3.36,1.54
				c0.91,0.88,1.56,2.03,1.74,3.26C318.47,222.67,318.16,222.78,318.16,222.78L318.16,222.78z"/>
		</g>
		<g>
			<path class="st7" d="M304.22,223.85c2.32,0.68,3.96,3.37,3.31,5.72c0,0-0.39-0.02-0.39-0.02c-0.4-2.18-1.36-3.94-3.13-5.28
				C304.01,224.27,304.22,223.85,304.22,223.85L304.22,223.85z"/>
		</g>
	</g>
	<g>
		<path class="st8" d="M147.83,1050.5c-4.18,5.34-2.35,12.45,1.78,14.67c3.75,2.01,9.89,0.26,12.67-5.11"/>
		<g>
			<path class="st7" d="M262.81,285.29c-1.75-9.8-6.06-19.03-10.75-27.74c-4.89-8.49-10.73-17.17-19.41-22.05
				c-4.41-2.1-9.32-3.57-14.21-3.13c-9.89,1.17-16.88,10.99-18.84,20.19c-0.92,4.95-0.14,9.87,0.14,14.84
				c0.52,7.47,0.65,15.01,1.32,22.46c0.75,7.48,3.9,14.52,4.29,22.09c0.25,2.52,0.14,5.07,0.2,7.53c0.19,4.97,1.21,9.83,2.84,14.55
				c1.55,4.79,2.8,9.7,3.33,14.72c0.26,2.52,0.29,5.02,0.57,7.48c0.6,4.92,1.54,9.86,3.47,14.41c2.11,4.51,4.17,9.2,5.35,14.08
				c1.34,4.83,2.14,9.86,2.66,14.83c0.52,4.94,2.04,9.7,4.01,14.26c0.97,2.35,2.29,4.37,3.44,6.65c3.42,7.26,0.66,15.15-1.79,22.21
				c-1.6,4.74-3.19,9.48-4.64,14.26c-1.45,4.78-2.47,9.73-4.18,14.44c-1.63,4.74-3.39,9.45-5.4,14.05
				c-4.23,9.06-8.33,18.19-9.94,28.1c-1.27,9.93-2.88,19.87-5.71,29.51c-2.93,9.6-6.42,18.94-8.9,28.67
				c-5.12,19.2-8.49,39.29-6.97,59.18c2.4,14.84,3.57,29.87,3.55,44.91c-0.02,10.02-0.66,20-0.22,30.01
				c0.41,9.98,1.06,19.98,3.23,29.73c0.51,2.45,0.98,4.93,1.31,7.42c1.38,12.46,1.67,25.03,1.48,37.57
				c-0.46,15.03-3.24,30.28-10.43,43.64c-4.73,8.86-10.89,16.79-15.32,25.81c-4.58,8.87-8.21,18.2-11.27,27.71
				c-6.09,19.03-9.91,38.79-11.36,58.72c-1.54,17.41-1.43,35,1.15,52.31c3.94,24.04,3.38,28.85-9.22,50.24
				c-5.87,10.75-13.78,24.05-11.1,36.55c3.22,11.57,12.92,20.09,23.26,25.53c2.2,1.18,4.52,2.26,6.7,3.59
				c4.4,2.52,8.11,6.12,12.19,9.02c4.09,2.95,9.11,4,13.91,5.28c12.13,2.7,25.16,3.44,37.29,0.5c2.52-0.75,6.34-1.96,6.82-4.88
				c-0.08-1.78-2.05-2.66-3.28-3.81c-4.01-3.08-7.83-6.49-11.27-10.21c-8.47-9.35-15.87-20.04-20.44-31.84
				c-2.66-7.14-4.72-14.53-5.51-22.15c-1.08-12.66,0.51-25.35,2.56-37.82c0.43-2.3,0.91-5.18,1.41-7.36
				c6.87-30.68,17.08-60.49,28.11-89.9c5.8-14.54,9.7-29.8,13.48-44.96c2.86-11.41,5.21-22.95,8.37-34.29
				c0.81-3.25,2.97-7.94,4.22-11.13c3.35-6.82,6.66-14.65,7.77-22.55c1.85-11.47,3.08-23.15,6.68-34.28
				c1.87-5.5,4.07-10.88,5.45-16.53c1.48-5.61,2.17-11.34,3.04-17.12c2.82-17.25,7.32-34.15,11.57-51.08
				c11.65-45.82,23.39-82.58-6.2-125.13c-1.67-2.37-3.37-4.71-4.95-7.17c0,0,0.11-0.09,0.11-0.09c2.13,2.02,3.96,4.3,5.65,6.68
				c11.87,16.64,18.82,36.89,18.9,57.38c0.13,11.71-1.84,23.29-4.27,34.67c-5.01,22.73-11.54,45.08-16.54,67.8
				c-1.24,5.67-2.39,11.37-3.31,17.1c-0.86,5.71-1.57,11.57-3.06,17.21c-1.38,5.67-3.58,11.08-5.46,16.59
				c-1.75,5.52-3,11.18-3.98,16.9c-1.84,9.98-2.27,20.41-6.06,29.95c-0.31,0.74-1.07,2.79-1.42,3.56c-0.84,1.99-2.1,4.48-3.1,6.67
				c-1.22,3.05-3.24,7.67-4.09,10.86c-7.09,26.47-11.74,53.76-21.88,79.33c-10.98,29.14-21.27,59.54-28.05,89.54
				c-0.94,4.59-1.95,10.3-2.59,14.99c-1.34,9.95-2.29,20.07-1.39,30.09c0.77,7.44,2.82,14.85,5.43,21.84
				c4.03,10.61,10.51,20.07,17.73,28.76c4.1,4.76,8.69,9.08,13.68,12.9c0.99,0.8,2.02,1.53,2.92,2.57c0.44,0.53,0.8,1.3,0.75,2.07
				c-0.02,0.77-0.37,1.42-0.75,2.02c-1.71,2.17-4.31,3.01-6.8,3.78c-4.95,1.36-10.06,1.75-15.13,1.87
				c-10.17,0.19-20.33-1.25-30.01-4.4c-7.48-2.18-12.45-8.62-19.05-12.37c-6.62-3.65-13.62-6.93-19.18-12.23
				c-5.52-5.2-9.78-11.24-11.45-18.45c-1.42-7.92,1.32-15.85,4.47-22.98c2.07-4.59,4.48-9,6.95-13.36
				c12.47-21.2,13.01-25.7,9.1-49.61c-2.59-17.38-2.7-35.05-1.16-52.53c1.46-20,5.29-39.84,11.4-58.95
				c3.07-9.55,6.72-18.93,11.33-27.86c4.42-9,10.63-17.01,15.33-25.82c7.12-13.22,9.86-28.31,10.32-43.2
				c0.16-4.99,0.09-9.99-0.06-14.98c-0.43-9.99-0.48-20.04-2.71-29.78c-2.19-9.82-2.84-19.9-3.25-29.9
				c-0.44-10.01,0.2-20.04,0.22-30.04c0.02-15.01-1.14-29.98-3.54-44.8c-1.86-25.11,3.7-50.16,11.25-73.98
				c3.26-9.47,6.33-18.95,8.09-28.82c1.01-4.92,1.49-9.86,2.24-14.83c0.87-4.98,2.28-9.81,3.98-14.56c1.73-4.75,4.07-9.2,6.03-13.78
				c2.92-6.87,5.6-13.91,7.55-21.12c1.79-7.29,4.24-14.45,6.63-21.56c1.49-4.69,3.45-9.42,3.35-14.38
				c-0.09-2.43-0.47-4.92-1.51-7.09c-1.11-2.18-2.5-4.39-3.45-6.68c-2-4.63-3.54-9.51-4.08-14.54c-0.52-4.99-1.3-9.87-2.63-14.7
				c-1.6-7.4-6.06-13.76-7.59-21.18c-1.19-4.88-1.49-9.98-1.84-14.94c-0.52-4.93-1.75-9.8-3.28-14.52
				c-1.65-4.74-2.69-9.78-2.89-14.82c0.05-5.05-0.21-9.93-1.26-14.84c-1.17-4.81-2.76-9.7-3.23-14.69c-0.67-7.51-0.8-15-1.32-22.51
				c-0.29-5.01-1.07-10.1-0.12-15.09c2.54-12.32,13.69-24.45,27.34-20.35c12.83,2.84,20.81,14.32,26.97,25.03
				c3.67,6.58,6.78,13.52,8.8,20.79c0.67,2.42,1.18,4.91,1.33,7.43C263.07,285.27,262.81,285.29,262.81,285.29L262.81,285.29z"/>
		</g>
		<g>
			<path class="st7" d="M209.61,534.35c3.77,14.3,3.93,29.72,0,44c0.24-1.84,0.65-3.64,0.83-5.48
				C212.13,560.1,211.7,547.06,209.61,534.35L209.61,534.35z"/>
		</g>
		<g>
			<path class="st7" d="M253.17,523.69c-7.32,4.61-6.59,16.48-5.63,24.02c0.37,2.89,0.97,5.75,1.48,8.65
				c-1.04-3.14-1.85-6.35-2.46-9.61c-0.81-5.46-1.1-11.23,0.92-16.49C248.53,527.55,250.37,524.77,253.17,523.69L253.17,523.69z"/>
		</g>
		<path class="st8" d="M201.61,718.65c0,0-5.34,61.62,28.44,61.63c15.56,0,22.67-12.67,22.67-12.67"/>
		<path class="st8" d="M247.19,781.61c0,0-33.5,4.57-30.64,25.31c2.85,20.75,8.95,29.12,8.95,29.12"/>
	</g>
	<g>
		<g>
			<path class="st7" d="M361.61,527.24c-9.29,17.13-19.77,33.69-32.12,48.8c-3.2,3.68-6.43,7.37-10.09,10.64
				c-1.77,1.69-3.63,3.21-5.2,5.06c-6.45,7.28-9.68,16.9-10.8,26.45c-0.27,2.41-0.43,4.85-0.38,7.28
				c-0.5-12.05,2.48-24.95,10.53-34.3c1.57-1.87,3.49-3.47,5.23-5.16c3.59-3.25,6.78-6.93,9.94-10.61
				C341.11,560.41,351.65,543.93,361.61,527.24L361.61,527.24z"/>
		</g>
		<path class="st8" d="M369.95,403.16c0,0-3.45,19.34-3,31.34c0.44,12,1.48,23.56,2.37,29.93c0.89,6.37,4.89,22.22,4.74,35.11
			c-0.15,12.89,6.52,30.37,7.7,38.96c1.19,8.59,2.22,31.56,3.7,37.85c1.48,6.3,10.07,47.19,13.48,71.48
			c3.41,24.3,5.93,71.56,4.44,81.04c-1.48,9.48-2.81,36.15-3.7,41.78s1.78,9.19,2.96,13.48c1.19,4.3,7.94,48.31,15.61,59.18
			c6.24,8.85,15.65,34.21,8.37,75.7c-2.81,16.03-4.58,20.24-9.67,38.78c-1.55,5.64-7.37,23.38-10.91,42.85
			c-4.67,25.64-7.06,38.81-4.13,49.59c0.63,2.32,2.86,9.51,0.81,18.02c-0.79,3.27-1.3,2.94-2.59,7.13
			c-2.53,8.2-1.87,13.13-2.41,22.05c-0.68,11.31-1.03,16.96-3.6,20.93c-7.42,11.43-25.25,11.35-31.4,11.32
			c-5.05-0.02-9.02-0.1-12.09-2.95c-6.83-6.33-2.15-19.82-1.94-20.38c2.16-8.74,4.32-17.48,6.49-26.22
			c3.51-5.7,4.87-10.86,5.23-15.19c0.42-5.04-0.73-6.29-0.13-11.58c0.75-6.62,3.05-9,5-15.12c1.3-4.09,2.54-10.14,1.86-18.26
			c-0.58-20.58-1.16-41.16-1.74-61.75c-1.05-28.26-0.1-56.66-3.14-84.77c-1.36-12.61-4.49-24.16-9.17-35.95
			c-3.07-7.74-12.96-25.11-14.89-29.93s-8.74-35.19-10-43.93c-1.26-8.74-9.78-39.63-10.74-44.67c-0.96-5.04-9.7-30.96-11.04-34.59
			c-1.33-3.63-8.3-28-9.19-33.19c-0.89-5.19-2-21.41-2.07-28.44c-0.07-7.04-4.3-9.84-4.3-9.84"/>
		<path class="st8" d="M362.5,805.39c-0.44,16.44,3.78,22.67,9.78,25.11c6,2.44,16.67,2,19.78-2.44c3.11-4.44,8.44-16.89,4.89-28.22
			"/>
		<path class="st8" d="M339.39,787.83c0,0,4.44,15.78,9.11,19.56s12.48,6.67,11.9,11.33c-0.57,4.67,3.65,15.11,3.65,15.11"/>
		<path class="st8" d="M376.72,886.06c1.55,13.36,2.75,27.43,3.46,42.17c1.56,32.62,0.43,62.61-2.13,89.39"/>
	</g>
	<path class="st8" d="M220.6,341.56c0,0-0.21,23.27,22.68,30.05"/>
	<path class="st8" d="M321.52,365.53c0,0,16.46,23.14,37.46,21.98"/>
	<g>
		<path class="st8" d="M246.49,247.89c6.56,3.25,13.7,6.49,21.41,9.57c5.55,2.22,10.92,4.17,16.09,5.89"/>
		<path class="st8" d="M268.43,227.61c0,0-0.81,5.56-2.43,9c-1.61,3.44-19.86,10.81-19.86,10.81"/>
	</g>
	<g>
		<g>
			<path class="st7" d="M335,251.1c5.8,2.75,12.06,4.17,18.47,3.8c3.78-0.18,7.38,1.4,11.1,1.6c1.13,0.03,2.75,0.25,3.85,0.09
				c10.43-3.55,20.4-4.43,26.79,6.26c2.27,3.74,3.68,7.89,4.68,12.07c1.91,8.41,2.63,17.02,2.59,25.63
				c-0.07,4.31-0.66,8.59-0.84,12.82c-0.14,6.31,0.66,12.79,2.94,18.71c3.66,7.79,6.24,16.05,7.53,24.57
				c1.08,6.08,2.67,12.93,2.51,19.17c-0.01,2.16-0.28,4.36-0.68,6.46c-0.69,3.45-1.47,9.21-2.38,12.65
				c-1.62,6.25-2.86,12.71-6.42,18.23c-2.23,3.8-5.91,6.46-9.65,8.63c-2.88,1.51-5.95,3.38-9.38,2.97
				c-3.16-1.16-5.24-4.24-7.04-6.88c-10.03-16.2-22.92-31.41-31.24-48.63c-7.75-15.3-14.16-31.3-19.1-47.72
				c-2.26-7.1-4.85-14.15-7.77-21.02c-3.32-6.65-6.76-13.35-10.86-19.55c-1.53-2.59-4.1-3.18-5.43-5.9
				c-0.97-1.94-1.23-4.11-2.35-5.95c-0.52-0.9-1.86-3.25-2.41-4.17c-3.39-5.46-5.61-11.57-8.9-17.06c-1.67-2.77-4.13-5.02-5.25-8.13
				c-1.01-3.16-4.09-4.58-6.3-6.81c-1.57-1.5-3.06-3.06-4.36-4.84c-0.65-0.95-1.36-1.96-1.33-3.2c0.08-2.38,1.01-5.37,3.66-5.98
				c1.09-0.07,2.03,0.6,2.91,1.1c1.86,1.16,3.55,2.48,5.25,3.79c2.53,1.92,4.98,4.03,7.69,5.67c0.42,0.24,0.96,0.51,1.23,0.51
				c0.08,0.01,0.03-0.02-0.01,0.05c-0.05,0.08,0.01-0.04,0.01-0.11c0.03-0.16,0-0.4-0.04-0.62c-1.23-3.99-3.98-7.46-6.17-10.98
				c0,0-1.76-2.7-1.76-2.7c-0.62-0.85-0.94-1.81-1.64-2.64c-2.2-2.28-4.76-4.37-6.78-6.9c-0.33-0.46-0.68-0.88-0.88-1.58
				c-0.13-0.6,0.11-1.26,0.25-1.84c0.58-1.93,2.17-3.85,4.33-4.01c1.46,0.09,2.76,0.77,4.01,1.36c2.92,1.63,5.75,3.16,8.01,5.73
				c3.04,4.85,6.46,9.61,9.51,14.47c-0.18,0.27,0.57-0.27-0.35,0.9c-0.97-0.38-0.36-0.22-0.61-0.35c-1.55-2.21-2.96-4.49-4.39-6.77
				c-1.68-2.76-3.38-5.51-4.77-8.44c-0.28-0.66-0.68-1.4-0.63-2.2c0.73-3.19,3.95-5.95,7.29-5.72c1.57,0.05,2.71,1.87,4.2,1.34
				c0.04-0.02,0.05-0.03,0.07-0.04c-0.02,0.01-0.03,0.03-0.06,0.09c-0.02,0.12-0.01,0.01-0.04-0.17c-0.06-0.35,0.05-0.78,0.21-1.07
				c0.33-0.58,0.76-0.98,1.2-1.34c0.91-0.71,1.77-1.36,2.88-1.77c1.63-0.57,3.74-0.52,5.06,0.73c1.97,1.91,3.44,4.24,4.95,6.46
				c0.39,0.63,1.84,2.82,2.16,3.36c0.06,0.04-0.14-0.1-0.24-0.04c-0.01,0,0.07-0.04,0.16-0.12c1.7-1.84,3.38-0.51,4.61,1.16
				c0.34,0.52,0.52,0.9,0.89,1.2c1.74,2.16,2.84,4.66,4.14,7.06c0.96,1.91,1.99,3.75,3.25,5.42c1.07,1.27,2.19,2.65,2.36,4.39
				c0.21,2.71-0.51,5.41-0.31,8.07c0.12,2.1,0.33,4.3,0.31,6.43c0.03,2.15-0.14,4.35-0.35,6.45c-0.33,4.18,0.28,8.49,1.37,12.52
				c1.73,6.33,7.92,10.03,10.25,16.09c1.64,3.99,3.11,7.95,4.95,11.84c5.09,11.27,12.65,22.75,19.04,33.4
				c4.4,7.33,9.52,14.17,15.86,19.92c6.55,5.62,12.02,12.42,16.12,20.04c2.02,3.84,3.43,7.93,4.5,12.08c0,0-0.23,0.08-0.23,0.08
				c-1.72-3.93-3.21-7.93-5.18-11.68c-1.97-3.74-4.46-7.24-7.02-10.63c-5.31-6.73-12.55-11.67-17.67-18.6
				c-4.59-5.78-9.98-15.28-13.94-21.64c-4.44-7.31-8.88-14.7-12.41-22.54c-1.83-3.86-3.34-7.93-4.96-11.86
				c-1.57-4.06-4.77-6.89-7.33-10.35c-3.87-5.32-4.67-12.33-4.37-18.75c0.21-2.15,0.38-4.23,0.35-6.36c0.02-2.16-0.19-4.23-0.31-6.4
				c-0.19-2.69,0.49-5.33,0.33-7.95c-0.18-1.61-1.1-2.62-2.16-3.93c-1.32-1.74-2.39-3.66-3.35-5.57c-1.21-2.29-2.36-4.76-3.93-6.78
				c-0.47-0.38-0.78-0.99-1.03-1.35c-0.56-0.73-1.43-1.66-2.05-1.64c-0.48,0.03-0.95,0.7-1.56,0.99c-0.71,0.27-1.07-0.61-1.36-1.04
				c-1.65-2.54-3.51-5.54-5.46-7.84c-0.65-0.73-1.26-1.54-2.23-1.78c-2.37-0.66-4.96,0.93-6.36,2.75c-0.25,0.51,0.03,0.44-0.11,1.1
				c-0.42,0.87-1.75,0.89-2.53,0.57c-1.41-0.7-2.58-1.69-4.18-1.16c-2.18,0.63-4.24,2.5-4.74,4.76c0.33,1.54,1.28,3,2.01,4.42
				c2.35,4.16,4.89,8.27,7.59,12.21c-0.17-0.03,0.51,0.25-0.35-0.05c-0.83,1.14-0.21,0.4-0.43,0.57c-0.59-1.04-1.76-2.7-2.37-3.64
				c-2.39-3.55-4.78-7.11-7.08-10.73c-0.51-0.7-1.43-1.39-2.25-2.01c-2.7-1.87-5.67-4.02-8.89-4.61c-1.95,0.22-3.23,2.19-3.55,4.01
				c0,0-0.07,0.37-0.07,0.37c-0.02,0.08-0.01,0.1-0.01,0.11c-0.01,0.01,0.01,0.06,0.02,0.09c0.55,1.34,1.8,2.44,2.81,3.53
				c1.66,1.81,3.69,3.24,5.18,5.27c0.61,1.24,2.15,3.5,2.93,4.7c2.29,3.68,5.06,7.13,6.32,11.35c0.6,4.09-4.05,0.41-5.4-0.57
				c-3.44-2.52-6.68-5.37-10.26-7.65c-0.71-0.41-1.44-0.91-2.24-0.96c-1.97,0.49-2.73,3.11-2.78,4.98c-0.04,0.85,0.56,1.76,1.14,2.6
				c2.47,3.53,5.96,6.02,9.08,8.95c1.56,1.64,1.85,3.89,3.12,5.68c1.13,1.77,2.71,3.36,3.75,5.21c3.33,5.54,5.51,11.61,8.91,17.09
				c0.54,0.95,1.89,3.26,2.41,4.18c1.42,2.26,1.48,5.17,3.2,7.22c0.64,0.79,1.41,1.43,2.3,1.98c2.52,2.28,3.89,5.24,5.64,8.05
				c2.66,4.68,5.19,9.39,7.55,14.23c2.95,6.92,5.53,13.97,7.81,21.13c7.61,24.39,17.49,48.49,32.17,69.52c0,0,7.34,10.55,7.34,10.55
				c2.45,3.51,4.91,7.03,7.24,10.61c2.8,3.92,4.73,8.47,8.65,11.22c1.2,0.98,2.69,0.78,4.17,0.35c1.99-0.58,3.9-1.52,5.73-2.57
				c3.64-2.14,7.19-4.63,9.3-8.28c2.23-3.6,3.74-7.58,4.72-11.72c1-4.15,2.21-8.25,2.85-12.49c0,0,1.1-6.32,1.1-6.32
				c1.76-8.28-0.32-17.07-1.83-25.27c-1.3-8.49-3.84-16.6-7.48-24.38c-2.33-6.05-3.15-12.64-3.01-19.12
				c0.18-4.29,0.77-8.52,0.84-12.81c0.04-8.48-0.68-17.09-2.56-25.38c-0.99-4.12-2.37-8.19-4.56-11.78
				c-6.15-10.31-15.67-9.2-25.67-5.82c-1.31,0.24-2.84-0.02-4.16-0.06c-3.78-0.18-7.26-1.77-11.08-1.6
				c-6.5,0.39-13.02-1.11-18.87-3.89C334.59,252.01,335,251.1,335,251.1L335,251.1z"/>
		</g>
		<g>
			<g>
				<path class="st7" d="M338.57,262.46c3.4-0.25,6.86-0.85,10.01-2.25c-3.04,1.73-6.46,2.66-9.91,3.25
					C338.66,263.45,338.57,262.46,338.57,262.46L338.57,262.46z"/>
			</g>
			<g>
				<path class="st7" d="M364.17,259.09c-5.68,0.16-12.59,1.4-14.63,7.52C350.16,259.78,358.47,257.69,364.17,259.09L364.17,259.09z
					"/>
			</g>
		</g>
	</g>
	<g>
		<g>
			<path class="st7" d="M325.5,460.67c0.05,4.15-1.03,8.5,0.89,12.33C323.24,470.18,324.14,464.23,325.5,460.67L325.5,460.67z"/>
		</g>
		<g>
			<path class="st7" d="M326.39,462.67c2.07,2.06,3.02,5.66,1.5,8.28C327.97,468.03,327.21,465.48,326.39,462.67L326.39,462.67z"/>
		</g>
	</g>
	<g>
		<g>
			<path class="st8" d="M330.79,216.97c0,0,5.77-8.97,6.93-13.75c1.17-4.78,2.33-27.5,2.28-31.11c-0.06-3.61-1.83-13.06-1.94-14.78
				c-0.11-1.72,0.17-2.06,0.11-3.44"/>
			<path class="st8" d="M338.83,194.05c0,0,1.92-3.28,2.51-4.55c0.17-0.36,1.39-1.06,1.78-2.22s1.06-5.11,1.39-6.39
				c0.33-1.28,0.17-5.39,1-8.17c0.83-2.78,1.61-10.44-0.28-11.06c-1.89-0.61-5.22,9.69-5.22,9.69"/>
		</g>
		<path class="st8" d="M342.83,170.5c0,0,0.94,6.28,0.78,7.92c-0.17,1.64-0.69,4.17-1.83,5.36"/>
	</g>
	<g>
		<g>
			<path class="st8" d="M257.28,157.06c0,0-2.77,9.78,0,22.56c2.77,12.78,4.22,21.22,4.99,24.44c0.78,3.22,2.81,7.89,4.29,10.38"/>
			<path class="st8" d="M261.91,202.41c0,0-2.3-1.3-2.8-2.19s-2.96-2.13-3.44-2.78c-0.39-0.52-4.28-4.06-4.67-6.89
				c-0.39-2.83-1.61-6.5-2.33-7.78c-0.72-1.28-1.89-7.83-1.33-10.44s2.94-1.67,4.22-0.61c1.28,1.06,5.73,7.89,5.73,7.89"/>
			<path class="st8" d="M257.83,191.54c0,0-1.52,4.59-1.04,5.78"/>
		</g>
		<path class="st8" d="M252.43,188.06c0,0,0.74-7.11-2.11-12.04c-2.85-4.93,4.44,3.41,4.44,3.41"/>
	</g>
	<g>
		<path class="st8" d="M291.53,167.66c0,0,6.41,4.07-4.41,13.3"/>
		<g>
			<path class="st8" d="M307.39,163.12c0,0-2.03,3.92-2,6.56c0.06,6.02,5.36,13.72,6.56,21.61c0.21,1.42-2.62,3.72-3.94,4.42
				c-2.33,1.23-4.21,1.99-5.92,1.92c-3.04-0.14-7.97-3.88-8.66-6.47c-0.42-1.59,2.37-7.74,2.37-7.74"/>
			<path class="st8" d="M293.89,166.62c0,0,6.32,7.56,4.61,19.92"/>
			<path class="st8" d="M295.71,191.98c1.69-0.63,2.87-0.5,3.64-0.25c0.95,0.3,3.37,1.45,4.15,1.33c0.86-0.13,0.61-0.45,2.41-1.11
				l0,0c0.61-0.15,1.73-0.17,3.43-0.04"/>
		</g>
	</g>
	<path class="st9" d="M290.01,160.23c-0.11-0.83-0.41-1.39-0.65-1.72c-1.05-1.46-2.42-2.07-5.39-2.44
		c-8.83-1.15-14.68,4.15-20.39,5.76c4.58-0.18,10.8-2.09,13.3-2.51c2.42-0.4,5.84,0.44,9.94,0.62
		C288.17,160.01,289.27,160.13,290.01,160.23z"/>
	<path class="st9" d="M333.08,154.8c-2.79-0.63-12.58-4.55-18.16-3.23c-0.97,0.23-4.34,1.02-4.82,2.91
		c-0.15,0.6-0.26,2.31-0.26,2.31l0,0c1.93-0.98,4.24-1.97,6.91-2.78C322.01,152.42,329.64,154.71,333.08,154.8z"/>
	<g>
		<path class="st8" d="M313.02,111.5c0,0,29.93-3.53,30.5,25.27"/>
		<path class="st8" d="M318.37,107.75c0,0,8.76-2.5,14.57,6.26"/>
		<path class="st8" d="M303.24,116.97c0,0,15.37-5.26,25.61,7.1"/>
		<path class="st8" d="M300.16,122.77c0,0,13.66-2.5,25.5,17.19"/>
		<path class="st8" d="M274.55,123.45c0,0-32.44,7.4-20.6,36.08"/>
		<path class="st8" d="M269.66,134.04c0,0-29.69,20.03-6.71,47.12"/>
		<path class="st8" d="M265.79,148.15c0,0-14.32,15.25-2.84,32.32"/>
		<path class="st8" d="M273.76,143.03c0,0-10.13,7.74-7.97,19.58"/>
		<path class="st8" d="M274.55,155.32c0,0,1.87,13.66-12.61,13.89"/>
		<path class="st8" d="M281.95,151.79c0,0,5.24,14.91-14.34,18.1"/>
		<path class="st8" d="M279.22,142.01c0,0-2.62,28.8,30.5,30.16"/>
		<path class="st8" d="M283.89,123.45c0,0-5.92,14.23,1.37,24.13"/>
		<path class="st8" d="M288.78,139.96c0,0-3.19,29.14,25.15,32.21"/>
		<path class="st8" d="M294.45,148.15c0,0,7.54,22.76,28.25,22.42c20.72-0.34,12.75,12.41,12.75,12.41"/>
		<path class="st8" d="M292.08,125.62c0,0-4.33,42.23,39.15,38.7"/>
		<path class="st8" d="M303.24,139.39c0,0,1.02,25.04,23.22,24.93"/>
		<path class="st8" d="M313.94,147.01c0,0,2.85,20.03,20.83,17.3"/>
		<path class="st8" d="M319.51,141.49c0,0,26.06,16.67,18.55,40.69"/>
		<path class="st8" d="M316.04,120.72c0,0,27.6,14.68,24.98,45.87"/>
		<path class="st8" d="M338.63,130.28c0,0,9.11,11.38,3.87,28"/>
		<path class="st8" d="M277.17,115.85c0,0-23.9-1.68-22.19,18.55"/>
		<path class="st8" d="M279.17,114.01c0,0-18.56-11.1-21.04,7.34"/>
		<path class="st8" d="M261.94,108.54c0,0,9.02-6.53,16.74,5.19"/>
		<path class="st8" d="M262.95,107.95c0,0,3.84-5.04,12.15-3.93"/>
		<path class="st8" d="M257.79,114.01c0,0-4.78-9.56,1.96-14.68"/>
		<path class="st8" d="M266.03,88.23c0,0-11.48,7.21-4.4,18.5"/>
		<path class="st8" d="M266.03,88.82c0,0-5.37,5.46-0.54,13.74"/>
		<path class="st8" d="M290.92,116.65c0,0,2.99-11.18,18.44-11.61"/>
		<path class="st8" d="M312.26,102.57c0,0-12.9-4.06-19.34,10.18"/>
		<path class="st8" d="M298.85,103.08c0,0,29.96-18.27,29.42,4.34"/>
		<path class="st8" d="M286.82,110.23c0,0,7.66-29.96,30.8-14.07"/>
		<path class="st8" d="M278.2,100.87c0,0,1.26-7.78,16.25-8.8"/>
		<path class="st8" d="M286.32,114.43c0,0-8.84-12.36,7.48-22.32"/>
		<path class="st8" d="M270.31,96.11c0,0-0.91-29.56,23.08-10.53"/>
		<path class="st8" d="M274.55,86.78c0,0,8.93-10.93,15.42,2.05"/>
		<path class="st8" d="M274.01,98.73c0,0-2.82-20.15,14.85-7.68"/>
		<path class="st8" d="M288.87,78.58c0,0,8.62,3.16,7.77,10.76"/>
		<path class="st8" d="M296.69,83.02c0,0,10.18-1.02,11.38,8.49"/>
	</g>
	<g>
		<g>
			<path class="st8" d="M290.33,171.9c-0.65-0.57-4.5-3.89-10.17-3.39c-5.1,0.45-8.16,3.7-8.83,4.44c1.73,0.75,5.03,1.89,9.28,1.73
				C285.24,174.5,288.66,172.85,290.33,171.9z"/>
			<path class="st8" d="M269.16,173.1c0,0,5.89-7.96,17.04-5.11"/>
			<path class="st8" d="M270.33,173.95c0,0,3.31,3.11,12.03,1.78"/>
			<path class="st8" d="M276.02,169.73c0,0,5.02,9.2,8.12-0.78"/>
			<path class="st8" d="M280.03,170.52c-0.61-0.24-0.37-1.55,0.51-1.15S280.65,170.76,280.03,170.52z"/>
		</g>
	</g>
	<g>
		<g>
			<path class="st8" d="M310.53,169.57c2.78-4.32,6.61-6.41,11.16-5.61c4.3,0.76,5.74,3.49,6.31,4.3c-1.49,0.73-2.33,1.95-4.49,2.43
				C317.42,172.04,313.23,170.5,310.53,169.57z"/>
			<path class="st8" d="M312.11,164.91c0.62-0.62,1.7-1.54,3.26-2.21c1.82-0.79,3.46-0.88,4.39-0.86c1.04,0.02,3.66,0.21,6.11,2.06
				c1.26,0.95,2.05,2.03,2.53,2.81"/>
			<path class="st8" d="M328.61,169.08c-1.86,1.38-6.12,4.11-11.12,3.3c-0.61-0.1-1.19-0.25-1.74-0.43"/>
			<path class="st8" d="M313.76,165.92c0,0,6.26,11.36,8.42-1.86"/>
			<path class="st8" d="M317.6,165.57c-0.58,0.19-1.19,2.27,0.73,1.61C319.57,166.75,318.33,165.32,317.6,165.57z"/>
		</g>
	</g>
	<circle class="st8" cx="302.21" cy="589.09" r="0.48"/>
	<circle class="st8" cx="306.29" cy="587.12" r="0.48"/>
	<circle class="st8" cx="305.81" cy="590.5" r="0.48"/>
	<circle class="st8" cx="301.73" cy="585.34" r="0.48"/>
	<circle class="st8" cx="305.61" cy="573.03" r="0.48"/>
	<circle class="st8" cx="309.96" cy="573.22" r="0.48"/>
	<circle class="st8" cx="308.68" cy="584.06" r="0.48"/>
	<circle class="st8" cx="304.66" cy="584.86" r="0.48"/>
	<circle class="st8" cx="310.43" cy="576.35" r="0.48"/>
	<circle class="st8" cx="314.16" cy="575.87" r="0.48"/>
	<circle class="st8" cx="308.39" cy="581.11" r="0.48"/>
	<circle class="st8" cx="302.21" cy="583.13" r="0.48"/>
	<circle class="st8" cx="301.46" cy="579.87" r="0.48"/>
	<circle class="st8" cx="312.99" cy="578.72" r="0.48"/>
	<circle class="st8" cx="305.13" cy="581.3" r="0.48"/>
	<circle class="st8" cx="301.25" cy="573.35" r="0.48"/>
	<circle class="st8" cx="311.55" cy="584.54" r="0.48"/>
	<circle class="st8" cx="316.5" cy="578.08" r="0.48"/>
	<circle class="st8" cx="309.96" cy="587.35" r="0.48"/>
	<circle class="st8" cx="300.43" cy="575.87" r="0.48"/>
	<circle class="st8" cx="303.54" cy="575.87" r="0.48"/>
	<circle class="st8" cx="307.53" cy="575.69" r="0.48"/>
	<circle class="st8" cx="305.13" cy="578.08" r="0.48"/>
	<circle class="st8" cx="309.16" cy="578.56" r="0.48"/>
	<circle class="st8" cx="311.87" cy="581.11" r="0.48"/>
	<circle class="st8" cx="316.33" cy="580.63" r="0.48"/>
	<circle class="st8" cx="314.64" cy="582.78" r="0.48"/>
	<circle class="st8" cx="312.51" cy="573.7" r="0.48"/>
	<g>
		<path class="st7" d="M290.17,604.16c2.09-1.67,5.13-4.15,7.02-5.99c1.13-1.05,2.35-2.02,3.34-3.16c0.97-1.16,1.52-2.64,2.14-4.04
			c-1.11,4.97-4.31,9.51-7.96,13.08c-1.22,1.23-2.56,2.32-3.91,3.41l-0.6-0.8c1.37-1,2.73-2.02,3.99-3.16
			c3.82-3.38,6.99-7.58,8.48-12.52c-0.39,1.39-0.97,2.98-1.86,4.26c-0.95,1.26-2.1,2.3-3.15,3.43c-1.73,2.04-4.78,4.53-6.84,6.25
			C290.83,604.91,290.17,604.16,290.17,604.16L290.17,604.16z"/>
	</g>
</g>
</svg>
